<svg xmlns="http://www.w3.org/2000/svg" width="280" height="280" viewBox="0 0 32 32"><g fill="none" fill-rule="evenodd"><path d="M0 0h32v32H0z"/><g fill-rule="nonzero"><path fill="#058373" d="M13.221 21.147c-1.314.051-2.571-.574-3.465-1.576a4.759 4.759 0 0 1-1.467-3.465c-.051-1.314.523-2.571 1.467-3.465a4.759 4.759 0 0 1 3.465-1.467h13.323c2.993 0 5.456-2.412 5.456-5.405v-.102H15.895v.102L14.79 3.102c-.37 0-.683-.102-1.047-.102h-1.046c-.37 0-.683 0-1.047.102l-1.206 3.044a9.334 9.334 0 0 0-2.252.944L5.149 5.884c-.42.37-.784.683-1.206 1.047-.37.37-.682.784-1.046 1.103l1.206 3.044a9.334 9.334 0 0 0-.944 2.253L.102 14.543A16.201 16.201 0 0 0 0 16.119c0 .523 0 1.047.102 1.576l3.044 1.206c.21.785.523 1.519.944 2.253l-1.206 3.043c.313.421.683.785 1.047 1.104.37.37.784.734 1.206 1.047l3.043-1.206a9.334 9.334 0 0 0 2.253.944l1.206 3.044c.312 0 .682.102 1.046.102h1.047c.37 0 .682 0 1.046-.102l1.206-3.044a9.334 9.334 0 0 0 2.252-.944l3.044 1.206c.421-.37.785-.683 1.206-1.047.37-.37.683-.785 1.047-1.104l-1.206-3.043"/><path fill="#00C089" d="M10.541 16.164a2.801 2.801 0 0 0 2.782 2.782h10.541c2.993 0 5.456-2.412 5.456-5.405v-.05H13.215a2.583 2.583 0 0 0-2.674 2.52v.16-.007Z"/></g></g></svg>